<?xml version="1.0" encoding="UTF-8" standalone="no"?>
<!DOCTYPE svg PUBLIC "-//W3C//DTD SVG 1.1//EN" "http://www.w3.org/Graphics/SVG/1.1/DTD/svg11.dtd">
<svg version="1.1" xmlns="http://www.w3.org/2000/svg" xmlns:xlink="http://www.w3.org/1999/xlink" preserveAspectRatio="xMidYMid meet" viewBox="0 0 640 640" width="1280" height="1280"><defs><path d="M9.92 324.37C9.92 153.23 148.86 14.29 320 14.29C491.14 14.29 630.08 153.23 630.08 324.37C630.08 495.51 491.14 634.46 320 634.46C148.86 634.46 9.92 495.51 9.92 324.37Z" id="dekl1mnVz"></path><clipPath id="clipbVhH7Ichb"><use xlink:href="#dekl1mnVz" opacity="1"></use></clipPath><path d="M183 299C194.05 299 203 307.95 203 319C203 362.4 203 472.6 203 516C203 527.05 194.05 536 183 536C176.2 536 175.8 536 169 536C157.95 536 149 527.05 149 516C149 472.6 149 362.4 149 319C149 307.95 157.95 299 169 299C175.8 299 176.2 299 183 299Z" id="fDclvf0R1"></path><path d="M286.5 90C297.55 90 306.5 98.95 306.5 110C306.5 161.8 306.5 297.2 306.5 349C306.5 360.05 297.55 369 286.5 369C278.3 369 273.7 369 265.5 369C254.45 369 245.5 360.05 245.5 349C245.5 297.2 245.5 161.8 245.5 110C245.5 98.95 254.45 90 265.5 90C273.7 90 278.3 90 286.5 90Z" id="c2CvtJBiUg"></path><path d="M495.6 148.2C505.03 153.77 508.16 165.93 502.59 175.35C475.97 220.42 406.2 338.53 379.59 383.59C374.02 393.02 361.86 396.15 352.43 390.58C344.48 385.88 337.7 381.87 329.74 377.18C320.32 371.61 317.19 359.45 322.76 350.02C349.38 304.96 419.14 186.85 445.76 141.79C451.33 132.36 463.49 129.23 472.91 134.8C480.86 139.5 487.65 143.51 495.6 148.2Z" id="a2PAfwOWjM"></path><path d="M595.16 313.65C600.12 321.04 598.15 331.07 590.75 336.03C555.39 359.76 462.69 421.96 427.33 445.69C419.93 450.66 409.91 448.68 404.94 441.29C399.39 433 391.7 421.55 386.14 413.27C381.18 405.87 383.15 395.85 390.55 390.89C425.91 367.16 518.61 304.96 553.97 281.23C561.37 276.26 571.39 278.23 576.36 285.63C581.92 293.91 589.6 305.36 595.16 313.65Z" id="aorp9vlQC"></path><path d="M353 474.5C353 508.44 325.44 536 291.5 536C257.56 536 230 508.44 230 474.5C230 440.56 257.56 413 291.5 413C325.44 413 353 440.56 353 474.5Z" id="f2A51S7Er"></path></defs><g><g><g><use xlink:href="#dekl1mnVz" opacity="1" fill="#46c116" fill-opacity="1"></use><g clip-path="url(#clipbVhH7Ichb)"><use xlink:href="#dekl1mnVz" opacity="1" fill-opacity="0" stroke="#35813a" stroke-width="30" stroke-opacity="1"></use></g></g><g><use xlink:href="#fDclvf0R1" opacity="1" fill="#fffd98" fill-opacity="1"></use></g><g><use xlink:href="#c2CvtJBiUg" opacity="1" fill="#c11616" fill-opacity="1"></use></g><g><use xlink:href="#a2PAfwOWjM" opacity="1" fill="#69edd0" fill-opacity="1"></use></g><g><use xlink:href="#aorp9vlQC" opacity="1" fill="#d9ed69" fill-opacity="1"></use></g><g><use xlink:href="#f2A51S7Er" opacity="1" fill="#000f4b" fill-opacity="1"></use></g></g></g></svg>